<?xml version="1.0" encoding="UTF-8"?>
<svg version="1.1" xmlns="http://www.w3.org/2000/svg" width="147" height="74">
<path d="M0 0 C48.51 0 97.02 0 147 0 C147 24.42 147 48.84 147 74 C98.49 74 49.98 74 0 74 C0 49.58 0 25.16 0 0 Z " fill="#D61910" transform="translate(0,0)"/>
<path d="M0 0 C42.9 0 85.8 0 130 0 C126.84885932 2.52091254 123.93885079 4.78368961 120.59375 6.953125 C119.36277588 7.75314941 119.36277588 7.75314941 118.10693359 8.56933594 C117.24664551 9.12395508 116.38635742 9.67857422 115.5 10.25 C114.61521973 10.82266602 113.73043945 11.39533203 112.81884766 11.98535156 C90.50086569 26.38797581 90.50086569 26.38797581 83 26 C80.39671203 25.34779033 77.91778416 24.64137009 75.375 23.8125 C45.27733112 14.4258439 45.27733112 14.4258439 15 20 C15 20.99 15 21.98 15 23 C13.80375 23.33 12.6075 23.66 11.375 24 C6.77818845 25.67379461 4.77348471 28.35617436 2.12890625 32.35546875 C1.75636719 32.89816406 1.38382812 33.44085938 1 34 C0.67 34 0.34 34 0 34 C0 22.78 0 11.56 0 0 Z " fill="#DB150B" transform="translate(0,0)"/>
<path d="M0 0 C-1.47762052 3.12730812 -3.22115021 5.94099622 -5.15234375 8.80859375 C-5.76400391 9.72060547 -6.37566406 10.63261719 -7.00585938 11.57226562 C-7.64330078 12.51779297 -8.28074219 13.46332031 -8.9375 14.4375 C-10.19768841 16.31047586 -11.45683764 18.18415142 -12.71484375 20.05859375 C-13.27292725 20.88673584 -13.83101074 21.71487793 -14.40600586 22.56811523 C-16.00552094 25.00842304 -17.51585218 27.48817146 -19 30 C-15.7 30 -12.4 30 -9 30 C-9.66 30.66 -10.32 31.32 -11 32 C-8.36 32.33 -5.72 32.66 -3 33 C-3 33.33 -3 33.66 -3 34 C-4.07483643 34.06993164 -5.14967285 34.13986328 -6.25708008 34.21191406 C-10.2448673 34.47634892 -14.23054907 34.76543992 -18.21606445 35.06201172 C-19.94117575 35.18691399 -21.66678506 35.30512559 -23.39282227 35.41650391 C-25.87417381 35.57778819 -28.35273823 35.76306864 -30.83203125 35.953125 C-31.60400345 35.9981012 -32.37597565 36.04307739 -33.17134094 36.0894165 C-37.52855373 36.38131828 -37.52855373 36.38131828 -40.76293945 39.06787109 C-41.17116943 39.70547363 -41.57939941 40.34307617 -42 41 C-49.20845356 40.92891071 -55.7855209 38.74716429 -62.625 36.625 C-74.52709255 33.04409692 -86.52999664 29.74684231 -99 29 C-99.82371094 28.94714844 -100.64742187 28.89429687 -101.49609375 28.83984375 C-116.65507616 28.33381096 -130.90879134 34.08441519 -145 39 C-145.31744968 33.43669444 -144.26767441 31.02420745 -140.8671875 26.76953125 C-137.87864217 23.9372906 -134.93733165 23.08616045 -131 22 C-131 21.01 -131 20.02 -131 19 C-110.35782874 9.93363458 -88.78222644 16.8315064 -68.375 23.375 C-60.93014012 25.74789022 -60.93014012 25.74789022 -53.51171875 23.8125 C-50.26579728 21.98529657 -47.12704818 20.02072183 -44 18 C-43.33049316 17.57154785 -42.66098633 17.1430957 -41.97119141 16.70166016 C-39.79048468 15.30543045 -37.61377105 13.9031316 -35.4375 12.5 C-34.70297607 12.02933105 -33.96845215 11.55866211 -33.21166992 11.07373047 C-30.06603228 9.04567297 -27.01059541 7.00807203 -24.03125 4.73828125 C-16.23545061 -1.04986499 -9.31829243 -0.7365777 0 0 Z " fill="#ECE7E7" transform="translate(146,0)"/>
<path d="M0 0 C-0.99324036 1.47673035 -0.99324036 1.47673035 -3 3 C-5.77767937 3.29101894 -8.33029417 3.39950833 -11.1081543 3.37231445 C-11.9345491 3.37596512 -12.76094391 3.37961578 -13.61238098 3.38337708 C-16.3498681 3.39149538 -19.08676536 3.37785616 -21.82421875 3.36328125 C-23.72890726 3.36276255 -25.63359632 3.36328064 -27.5382843 3.36479187 C-31.53561368 3.36470207 -35.5327417 3.35426204 -39.5300293 3.33618164 C-44.63989376 3.31357117 -49.74946197 3.31293571 -54.8593626 3.31969929 C-58.79631657 3.32305185 -62.73320376 3.31638371 -66.67014503 3.30657005 C-68.55309512 3.30273414 -70.43605265 3.30156313 -72.31900597 3.3031559 C-74.96110363 3.30352932 -77.6028313 3.29082678 -80.24487305 3.2746582 C-81.01556122 3.27713562 -81.78624939 3.27961304 -82.58029175 3.28216553 C-87.68074313 3.23268346 -92.09084602 2.39738079 -97 1 C-97 0.01 -97 -0.98 -97 -2 C-93.50249127 -3.2984817 -90.00157404 -4.58752558 -86.5 -5.875 C-85.51773438 -6.23980469 -84.53546875 -6.60460938 -83.5234375 -6.98046875 C-54.99972158 -17.43916459 -27.68647932 -9.97137569 0 0 Z " fill="#D4D5D7" transform="translate(98,42)"/>
<path d="M0 0 C0.88469971 0.27231445 1.76939941 0.54462891 2.6809082 0.82519531 C3.47859619 1.07366211 4.27628418 1.32212891 5.09814453 1.578125 C7.89453217 2.31317903 10.41452657 2.44786907 13.28637695 2.15332031 C13.61637695 1.82332031 13.94637695 1.49332031 14.28637695 1.15332031 C13.29637695 0.16332031 13.29637695 0.16332031 12.28637695 -0.84667969 C15.63250871 -1.80926554 18.86897415 -2.12618617 22.3371582 -2.38183594 C24.09769531 -2.51235352 24.09769531 -2.51235352 25.89379883 -2.64550781 C27.11647461 -2.73251953 28.33915039 -2.81953125 29.59887695 -2.90917969 C31.41548828 -3.04549805 31.41548828 -3.04549805 33.26879883 -3.18457031 C38.95366718 -3.5984113 44.58599743 -3.97298056 50.28637695 -3.84667969 C50.28637695 -3.51667969 50.28637695 -3.18667969 50.28637695 -2.84667969 C49.62250977 -2.73710938 48.95864258 -2.62753906 48.2746582 -2.51464844 C47.39165039 -2.35609375 46.50864258 -2.19753906 45.59887695 -2.03417969 C44.29370117 -1.80794922 44.29370117 -1.80794922 42.9621582 -1.57714844 C40.22380081 -0.9603075 40.22380081 -0.9603075 37.8449707 0.62597656 C34.93067804 2.36565356 32.33983802 3.03788938 29.03637695 3.77832031 C25.35517289 4.35452311 25.35517289 4.35452311 22.28637695 6.15332031 C2.23255317 10.18628487 -18.16109967 9.54595169 -38.50628662 9.41760254 C-42.14733331 9.39839464 -45.78832984 9.39444082 -49.42942047 9.39088821 C-53.80542745 9.3857324 -58.18139002 9.37123714 -62.55737305 9.35644531 C-63.37863174 9.35456459 -64.19989044 9.35268387 -65.04603577 9.35074615 C-67.37474575 9.34383676 -69.70331736 9.33019155 -72.03198242 9.31445312 C-74.0097467 9.30421112 -74.0097467 9.30421112 -76.02746582 9.29376221 C-79.67484903 9.1547976 -83.13293677 8.86765666 -86.71362305 8.15332031 C-87.04362305 7.49332031 -87.37362305 6.83332031 -87.71362305 6.15332031 C-57.35362305 6.15332031 -26.99362305 6.15332031 4.28637695 6.15332031 C4.61637695 5.49332031 4.94637695 4.83332031 5.28637695 4.15332031 C-35.78476439 -8.36755739 -35.78476439 -8.36755739 -77.40405273 -1.64892578 C-80.80648563 -0.4670659 -84.27413774 0.47035786 -87.74926758 1.41381836 C-89.90595872 1.971731 -89.90595872 1.971731 -90.71362305 4.15332031 C-90.71362305 1.51332031 -90.71362305 -1.12667969 -90.71362305 -3.84667969 C-90.05362305 -2.52667969 -89.39362305 -1.20667969 -88.71362305 0.15332031 C-88.07448975 -0.0785498 -87.43535645 -0.31041992 -86.77685547 -0.54931641 C-83.8214261 -1.61573317 -80.86137917 -2.66873935 -77.90112305 -3.72167969 C-76.89629883 -4.08648437 -75.89147461 -4.45128906 -74.85620117 -4.82714844 C-49.08638012 -13.94187614 -25.26861169 -7.88407965 0 0 Z " fill="#767273" transform="translate(90.713623046875,37.8466796875)"/>
<path d="M0 0 C5.50750606 1.77461289 10.14664666 3.14027577 15.94482422 2.64257812 C15.94482422 3.30257812 15.94482422 3.96257813 15.94482422 4.64257812 C16.93482422 4.97257812 17.92482422 5.30257812 18.94482422 5.64257812 C18.28482422 6.30257812 17.62482422 6.96257813 16.94482422 7.64257812 C9.70667965 7.33796683 3.20524225 5.40399642 -3.68017578 3.26757812 C-15.58226833 -0.31332496 -27.58517242 -3.61057957 -40.05517578 -4.35742188 C-40.87888672 -4.41027344 -41.70259766 -4.463125 -42.55126953 -4.51757812 C-57.71025194 -5.02361092 -71.96396712 0.72699331 -86.05517578 5.64257812 C-86.05517578 4.65257812 -86.05517578 3.66257812 -86.05517578 2.64257812 C-55.63350452 -13.07217476 -31.92293986 -10.49749567 0 0 Z " fill="#D9DADB" transform="translate(87.05517578125,33.357421875)"/>
<path d="M0 0 C1.32 0 2.64 0 4 0 C4.33 0.99 4.66 1.98 5 3 C5.804375 3.144375 6.60875 3.28875 7.4375 3.4375 C10 4 10 4 11 5 C11.1875 8.4375 11.1875 8.4375 11 12 C9 14 9 14 6.8359375 14.1953125 C5.61777344 14.16050781 5.61777344 14.16050781 4.375 14.125 C3.55773437 14.10695313 2.74046875 14.08890625 1.8984375 14.0703125 C1.27195312 14.04710938 0.64546875 14.02390625 0 14 C0 12.68 0 11.36 0 10 C-2.31 10 -4.62 10 -7 10 C-7 10.66 -7 11.32 -7 12 C-5.35 12 -3.7 12 -2 12 C-2 12.66 -2 13.32 -2 14 C-8.52307692 14.36923077 -8.52307692 14.36923077 -10.9375 12.5 C-11.288125 12.005 -11.63875 11.51 -12 11 C-12.33 11.99 -12.66 12.98 -13 14 C-14.65 14 -16.3 14 -18 14 C-18 12.35 -18 10.7 -18 9 C-18.66 9 -19.32 9 -20 9 C-20.33 10.65 -20.66 12.3 -21 14 C-22.32 14 -23.64 14 -25 14 C-26.31626692 10.38026598 -27 7.90432869 -27 4 C-26.01 4 -25.02 4 -24 4 C-23.01 5.485 -23.01 5.485 -22 7 C-21.67 6.01 -21.34 5.02 -21 4 C-19.824375 4.309375 -19.824375 4.309375 -18.625 4.625 C-17.75875 4.74875 -16.8925 4.8725 -16 5 C-15.34 4.34 -14.68 3.68 -14 3 C-11.46875 2.734375 -11.46875 2.734375 -8.5 2.75 C-7.5203125 2.74484375 -6.540625 2.7396875 -5.53125 2.734375 C-3 3 -3 3 -1 5 C-0.67 3.35 -0.34 1.7 0 0 Z " fill="#F9DCDB" transform="translate(28,56)"/>
<path d="M0 0 C1.18722656 0.20496094 1.18722656 0.20496094 2.3984375 0.4140625 C3.85191257 0.65395644 5.31003348 0.86998395 6.7734375 1.0390625 C7.1034375 0.7090625 7.4334375 0.3790625 7.7734375 0.0390625 C10.7109375 -0.1484375 10.7109375 -0.1484375 13.7734375 0.0390625 C14.4334375 0.6990625 15.0934375 1.3590625 15.7734375 2.0390625 C16.3921875 1.7090625 17.0109375 1.3790625 17.6484375 1.0390625 C21.97027704 -0.34392615 26.26644585 -0.50337189 30.7734375 0.0390625 C32.7734375 2.0390625 32.7734375 2.0390625 32.96875 4.203125 C32.94554687 5.01523437 32.92234375 5.82734375 32.8984375 6.6640625 C32.88039062 7.48132813 32.86234375 8.29859375 32.84375 9.140625 C32.82054687 9.76710938 32.79734375 10.39359375 32.7734375 11.0390625 C31.7834375 11.0390625 30.7934375 11.0390625 29.7734375 11.0390625 C29.7734375 8.3990625 29.7734375 5.7590625 29.7734375 3.0390625 C28.4534375 3.0390625 27.1334375 3.0390625 25.7734375 3.0390625 C25.7734375 5.6790625 25.7734375 8.3190625 25.7734375 11.0390625 C24.7834375 11.0390625 23.7934375 11.0390625 22.7734375 11.0390625 C22.7734375 8.3990625 22.7734375 5.7590625 22.7734375 3.0390625 C21.7834375 3.0390625 20.7934375 3.0390625 19.7734375 3.0390625 C19.7734375 5.6790625 19.7734375 8.3190625 19.7734375 11.0390625 C10.7734375 11.0390625 1.7734375 11.0390625 -7.2265625 11.0390625 C-7.2265625 10.0490625 -7.2265625 9.0590625 -7.2265625 8.0390625 C-6.5665625 8.0390625 -5.9065625 8.0390625 -5.2265625 8.0390625 C-5.319375 6.894375 -5.319375 6.894375 -5.4140625 5.7265625 C-5.2265625 3.0390625 -5.2265625 3.0390625 -4.00390625 1.34765625 C-2.2265625 0.0390625 -2.2265625 0.0390625 0 0 Z " fill="#FCEFEE" transform="translate(71.2265625,58.9609375)"/>
<path d="M0 0 C1.32 0 2.64 0 4 0 C4.33 1.65 4.66 3.3 5 5 C5.66 4.34 6.32 3.68 7 3 C10.20319784 2.74711596 12.92784561 3.08973203 16 4 C16 3.01 16 2.02 16 1 C17.32 1 18.64 1 20 1 C20 1.99 20 2.98 20 4 C20.66 4 21.32 4 22 4 C22 4.66 22 5.32 22 6 C21.34 6 20.68 6 20 6 C20 7.65 20 9.3 20 11 C20.66 11 21.32 11 22 11 C22 11.99 22 12.98 22 14 C19.625 14.1875 19.625 14.1875 17 14 C16.34 13.01 15.68 12.02 15 11 C14.01 12.485 14.01 12.485 13 14 C9.4375 14.25 9.4375 14.25 6 14 C5.67 13.67 5.34 13.34 5 13 C4.67 14.32 4.34 15.64 4 17 C2.02 17.33 0.04 17.66 -2 18 C-1.84660156 17.48953125 -1.69320312 16.9790625 -1.53515625 16.453125 C-0.83094597 13.2250662 -0.65111796 10.04581999 -0.4375 6.75 C-0.35371094 5.48671875 -0.26992188 4.2234375 -0.18359375 2.921875 C-0.12300781 1.95765625 -0.06242187 0.9934375 0 0 Z " fill="#FBE9E8" transform="translate(40,56)"/>
<path d="M0 0 C1.32 0.33 2.64 0.66 4 1 C3.01 1 2.02 1 1 1 C1.66 4.3 2.32 7.6 3 11 C4.32 10.67 5.64 10.34 7 10 C7.33 8.68 7.66 7.36 8 6 C8.66 6 9.32 6 10 6 C10 7.65 10 9.3 10 11 C11.65 11 13.3 11 15 11 C15.33 9.68 15.66 8.36 16 7 C16.350625 7.474375 16.70125 7.94875 17.0625 8.4375 C19.84163543 10.67873825 22.5144717 10.67117658 26 11 C26 10.34 26 9.68 26 9 C24.35 9 22.7 9 21 9 C21 8.34 21 7.68 21 7 C23.31 7 25.62 7 28 7 C28 8.32 28 9.64 28 11 C32.455 10.505 32.455 10.505 37 10 C37.66 8.02 38.32 6.04 39 4 C39.33 4 39.66 4 40 4 C40.17700355 8.60209225 40.10814567 10.78370866 38 15 C25.46 15 12.92 15 0 15 C0 10.05 0 5.1 0 0 Z " fill="#DF2D24" transform="translate(0,59)"/>
<path d="M0 0 C3.26954202 0.56371414 4.82575883 1.49962266 7 4 C5.5361389 8.39158329 3.02168662 8.87947433 -1 11 C-1 11.99 -1 12.98 -1 14 C-1.9075 14.103125 -2.815 14.20625 -3.75 14.3125 C-6.98060543 14.75492406 -6.98060543 14.75492406 -9.0625 16.5625 C-11.50864595 18.37738248 -13.02514639 18.24790447 -16 18 C-16 18.99 -16 19.98 -16 21 C-16.99 21 -17.98 21 -19 21 C-19 21.66 -19 22.32 -19 23 C-20.65 22.67 -22.3 22.34 -24 22 C-24.33 21.01 -24.66 20.02 -25 19 C-24.34 19 -23.68 19 -23 19 C-22.67 18.34 -22.34 17.68 -22 17 C-21.01 17 -20.02 17 -19 17 C-18.67 16.01 -18.34 15.02 -18 14 C-17.154375 13.505 -16.30875 13.01 -15.4375 12.5 C-14.633125 12.005 -13.82875 11.51 -13 11 C-13 10.01 -13 9.02 -13 8 C-11 8 -9 8 -7 8 C-7.33 7.01 -7.66 6.02 -8 5 C-6.8553125 4.7834375 -6.8553125 4.7834375 -5.6875 4.5625 C-2.91827092 4.0367406 -2.91827092 4.0367406 0 3 C0 2.01 0 1.02 0 0 Z " fill="#DF433C" transform="translate(128,5)"/>
<path d="M0 0 C1.32 0.66 2.64 1.32 4 2 C-2.66192449 4.37925875 -8.77533088 5.14959469 -15.82202148 5.12939453 C-16.58218567 5.13114685 -17.34234985 5.13289917 -18.12554932 5.13470459 C-20.62408775 5.13908514 -23.12255467 5.13619822 -25.62109375 5.1328125 C-27.36694858 5.1334867 -29.11280332 5.1344577 -30.85865784 5.13571167 C-34.51263322 5.13718356 -38.16658411 5.13505069 -41.82055664 5.13037109 C-46.49205447 5.12467836 -51.16349479 5.12795316 -55.8349905 5.13394356 C-59.43903533 5.13756651 -63.04306665 5.13640254 -66.64711189 5.13381577 C-68.36900909 5.13315107 -70.09090753 5.13395884 -71.81280327 5.13629532 C-74.22476296 5.13884988 -76.63663107 5.13494174 -79.04858398 5.12939453 C-79.75269913 5.13141876 -80.45681427 5.13344299 -81.18226624 5.13552856 C-85.53578927 5.11708674 -89.72723793 4.8598566 -94 4 C-94.33 3.34 -94.66 2.68 -95 2 C-93.28111824 2.00666183 -93.28111824 2.00666183 -91.5275116 2.01345825 C-80.74152388 2.05395748 -69.95555154 2.08396185 -59.16950512 2.10362434 C-53.62395757 2.11407275 -48.07847128 2.12825123 -42.53295898 2.15087891 C-37.18375863 2.17256958 -31.83461729 2.18456066 -26.48537636 2.18975449 C-24.44197981 2.19345703 -22.39858658 2.20068694 -20.35521507 2.21146011 C-17.49870128 2.22592482 -14.64243305 2.22798005 -11.78588867 2.22705078 C-10.93640656 2.23424133 -10.08692444 2.24143188 -9.21170044 2.24884033 C-5.28917171 2.23498277 -3.33875736 2.22583824 0 0 Z " fill="#6E6F71" transform="translate(98,42)"/>
<path d="M0 0 C3.96 0 7.92 0 12 0 C12 2.97 12 5.94 12 9 C12.99 8.67 13.98 8.34 15 8 C15.33 5.36 15.66 2.72 16 0 C16.99 0 17.98 0 19 0 C19 3.63 19 7.26 19 11 C11 11 3 11 -5 11 C-5 10.01 -5 9.02 -5 8 C-4.01 8 -3.02 8 -2 8 C-1.67 7.01 -1.34 6.02 -1 5 C-0.195625 4.87625 0.60875 4.7525 1.4375 4.625 C2.283125 4.41875 3.12875 4.2125 4 4 C4.33 3.34 4.66 2.68 5 2 C3.68 2 2.36 2 1 2 C1 2.66 1 3.32 1 4 C0.01 4 -0.98 4 -2 4 C-1.34 2.68 -0.68 1.36 0 0 Z " fill="#F7CECC" transform="translate(111,59)"/>
<path d="M0 0 C1.32 0 2.64 0 4 0 C4.33 0.99 4.66 1.98 5 3 C5.804375 3.144375 6.60875 3.28875 7.4375 3.4375 C10 4 10 4 11 5 C11.1875 8.4375 11.1875 8.4375 11 12 C9 14 9 14 6.8359375 14.1953125 C5.61777344 14.16050781 5.61777344 14.16050781 4.375 14.125 C3.55773438 14.10695313 2.74046875 14.08890625 1.8984375 14.0703125 C1.27195312 14.04710938 0.64546875 14.02390625 0 14 C0 12.35 0 10.7 0 9 C-2.31 9 -4.62 9 -7 9 C-6.01 8.67 -5.02 8.34 -4 8 C-4 7.34 -4 6.68 -4 6 C-5.32 5.67 -6.64 5.34 -8 5 C-7 4 -7 4 -4.5 3.875 C-2 4 -2 4 -1 5 C-0.67 3.35 -0.34 1.7 0 0 Z " fill="#FDF4F3" transform="translate(28,56)"/>
<path d="M0 0 C1.30324219 -0.02126953 1.30324219 -0.02126953 2.6328125 -0.04296875 C4.875 0.1875 4.875 0.1875 6.875 2.1875 C7.0703125 4.3515625 7.0703125 4.3515625 7 6.8125 C6.98195313 7.62976563 6.96390625 8.44703125 6.9453125 9.2890625 C6.92210938 9.91554688 6.89890625 10.54203125 6.875 11.1875 C5.885 11.1875 4.895 11.1875 3.875 11.1875 C3.875 8.5475 3.875 5.9075 3.875 3.1875 C2.555 3.1875 1.235 3.1875 -0.125 3.1875 C-0.125 5.8275 -0.125 8.4675 -0.125 11.1875 C-1.115 11.1875 -2.105 11.1875 -3.125 11.1875 C-3.125 8.5475 -3.125 5.9075 -3.125 3.1875 C-4.115 3.1875 -5.105 3.1875 -6.125 3.1875 C-6.125 5.8275 -6.125 8.4675 -6.125 11.1875 C-8.435 11.1875 -10.745 11.1875 -13.125 11.1875 C-13.125 8.2175 -13.125 5.2475 -13.125 2.1875 C-14.445 1.8575 -15.765 1.5275 -17.125 1.1875 C-14.45833333 1.1875 -11.79166667 1.1875 -9.125 1.1875 C-8.52945313 1.02636719 -7.93390625 0.86523438 -7.3203125 0.69921875 C-4.82809685 0.11829304 -2.55752811 0.01908603 0 0 Z " fill="#FAE3E1" transform="translate(97.125,58.8125)"/>
<path d="M0 0 C0 0.33 0 0.66 0 1 C-5.85251313 2.2944382 -11.67171398 3.22834981 -17.625 3.9375 C-21.81492565 4.46440212 -25.59314583 5.00601179 -29.5 6.625 C-33.43815868 8.17213377 -35.8434475 8.25978453 -40 8 C-38.68 7.01 -37.36 6.02 -36 5 C-36.66 4.34 -37.32 3.68 -38 3 C-34.65386824 2.03741415 -31.4174028 1.72049352 -27.94921875 1.46484375 C-26.18868164 1.33432617 -26.18868164 1.33432617 -24.39257812 1.20117188 C-23.16990234 1.11416016 -21.94722656 1.02714844 -20.6875 0.9375 C-18.87088867 0.80118164 -18.87088867 0.80118164 -17.01757812 0.66210938 C-11.33270977 0.24826838 -5.70037952 -0.12630088 0 0 Z " fill="#737173" transform="translate(141,34)"/>
<path d="M0 0 C-0.33 0.66 -0.66 1.32 -1 2 C-3.97 1.67 -6.94 1.34 -10 1 C-10 2.32 -10 3.64 -10 5 C-12 6.75 -12 6.75 -14 8 C-14.33 7.34 -14.66 6.68 -15 6 C-15.99 5.67 -16.98 5.34 -18 5 C-18 5.99 -18 6.98 -18 8 C-20.5 9.6875 -20.5 9.6875 -23 11 C-23 10.34 -23 9.68 -23 9 C-23.99 9.33 -24.98 9.66 -26 10 C-25.18568457 6.43737001 -23.71079898 4.37368864 -20.875 2.1875 C-14.64054176 -1.52072795 -6.97805263 -0.38108297 0 0 Z " fill="#ECE4E4" transform="translate(146,0)"/>
<path d="M0 0 C4.875 0.875 4.875 0.875 6 2 C6.1875 5.4375 6.1875 5.4375 6 9 C4 11 4 11 0.875 11.125 C-0.548125 11.063125 -0.548125 11.063125 -2 11 C-1.34 10.67 -0.68 10.34 0 10 C-0.185625 8.906875 -0.37125 7.81375 -0.5625 6.6875 C-1 3 -1 3 0 0 Z " fill="#F5C0BE" transform="translate(33,59)"/>
<path d="M0 0 C0.99 0 1.98 0 3 0 C3.66 0.99 4.32 1.98 5 3 C5.33 2.01 5.66 1.02 6 0 C7.32 0 8.64 0 10 0 C10 1.65 10 3.3 10 5 C9.01 5 8.02 5 7 5 C6.67 6.65 6.34 8.3 6 10 C4.68 10 3.36 10 2 10 C0.68373308 6.38026598 0 3.90432869 0 0 Z " fill="#FDF6F6" transform="translate(1,60)"/>
<path d="M0 0 C0.99 0 1.98 0 3 0 C3 3.63 3 7.26 3 11 C-3.93359375 11.09765625 -3.93359375 11.09765625 -6 11 C-7 10 -7 10 -7.09765625 7.93359375 C-7.08605469 7.10988281 -7.07445313 6.28617187 -7.0625 5.4375 C-7.05347656 4.61121094 -7.04445313 3.78492188 -7.03515625 2.93359375 C-7.02355469 2.29550781 -7.01195313 1.65742187 -7 1 C-6.34 1 -5.68 1 -5 1 C-4.67 3.31 -4.34 5.62 -4 8 C-3.01 8 -2.02 8 -1 8 C-0.67 5.36 -0.34 2.72 0 0 Z " fill="#FBE8E7" transform="translate(127,59)"/>
<path d="M0 0 C1.32 0 2.64 0 4 0 C4 0.99 4 1.98 4 3 C4.66 3 5.32 3 6 3 C6 3.66 6 4.32 6 5 C5.34 5 4.68 5 4 5 C4 6.65 4 8.3 4 10 C4.66 10 5.32 10 6 10 C6 10.99 6 11.98 6 13 C4.33388095 13.042721 2.66617115 13.04063832 1 13 C-0.55383208 11.44616792 -0.38172542 9.77276704 -0.625 7.625 C-0.72039063 6.83351563 -0.81578125 6.04203125 -0.9140625 5.2265625 C-1 3 -1 3 0 0 Z " fill="#FDF8F8" transform="translate(56,57)"/>
<path d="M0 0 C-3.2240498 2.79469693 -6.04843718 3.70744892 -10.1875 4.625 C-13.90108369 5.1957186 -13.90108369 5.1957186 -17 7 C-18.68183948 7.23287008 -20.3712416 7.41264166 -22.0625 7.5625 C-22.98160156 7.64628906 -23.90070313 7.73007812 -24.84765625 7.81640625 C-25.55792969 7.87699219 -26.26820312 7.93757813 -27 8 C-26.67 7.34 -26.34 6.68 -26 6 C-22.5 5.5 -22.5 5.5 -19 5 C-18.67 4.34 -18.34 3.68 -18 3 C-12.06581955 0.11238541 -6.49957243 -0.30950345 0 0 Z " fill="#3F3132" transform="translate(130,37)"/>
<path d="M0 0 C0.33 0.66 0.66 1.32 1 2 C3.02463255 2.65213292 3.02463255 2.65213292 5 3 C5 3.66 5 4.32 5 5 C3.35 5 1.7 5 0 5 C0 5.99 0 6.98 0 8 C-0.99 8 -1.98 8 -3 8 C-3 8.66 -3 9.32 -3 10 C-4.65 9.67 -6.3 9.34 -8 9 C-8.33 8.01 -8.66 7.02 -9 6 C-8.34 6 -7.68 6 -7 6 C-6.67 5.34 -6.34 4.68 -6 4 C-5.01 4 -4.02 4 -3 4 C-2.67 3.01 -2.34 2.02 -2 1 C-1.34 0.67 -0.68 0.34 0 0 Z " fill="#DF3831" transform="translate(112,18)"/>
<path d="M0 0 C2.97 0.495 2.97 0.495 6 1 C6.33 2.65 6.66 4.3 7 6 C3.37 6 -0.26 6 -4 6 C-4 5.01 -4 4.02 -4 3 C-3.01 3 -2.02 3 -1 3 C-0.67 2.01 -0.34 1.02 0 0 Z " fill="#F5BFBC" transform="translate(110,64)"/>
<path d="M0 0 C3.04386724 -0.08226668 5.07175348 0.02391783 8 1 C8 2.98 8 4.96 8 7 C5.69 7 3.38 7 1 7 C0.67 4.69 0.34 2.38 0 0 Z " fill="#F7CECC" transform="translate(47,59)"/>
<path d="M0 0 C3.26954202 0.56371414 4.82575883 1.49962266 7 4 C6.67 4.99 6.34 5.98 6 7 C3.69 7.33 1.38 7.66 -1 8 C-1.33 7.01 -1.66 6.02 -2 5 C-0.68 5.33 0.64 5.66 2 6 C2 5.34 2 4.68 2 4 C0.68 3.67 -0.64 3.34 -2 3 C-1.34 3 -0.68 3 0 3 C0 2.01 0 1.02 0 0 Z " fill="#DF8280" transform="translate(128,5)"/>
<path d="M0 0 C1.98 0.66 3.96 1.32 6 2 C6 2.99 6 3.98 6 5 C3.64561267 6.42944945 2.51967567 7.08661261 -0.25 6.625 C-0.8275 6.41875 -1.405 6.2125 -2 6 C-1.125 1.125 -1.125 1.125 0 0 Z " fill="#E03229" transform="translate(71,61)"/>
<path d="M0 0 C1.65 0 3.3 0 5 0 C5 0.66 5 1.32 5 2 C3.68 1.67 2.36 1.34 1 1 C1.33 1.66 1.66 2.32 2 3 C4.02463255 3.65213292 4.02463255 3.65213292 6 4 C5.34 4.433125 4.68 4.86625 4 5.3125 C3.34 5.869375 2.68 6.42625 2 7 C2 7.99 2 8.98 2 10 C1.34 10 0.68 10 0 10 C-0.99 7.69 -1.98 5.38 -3 3 C-2.01 3 -1.02 3 0 3 C0 2.01 0 1.02 0 0 Z " fill="#DC1F17" transform="translate(125,9)"/>
<path d="M0 0 C5.28 0 10.56 0 16 0 C15.67 0.66 15.34 1.32 15 2 C12.03 1.67 9.06 1.34 6 1 C6 2.32 6 3.64 6 5 C4 6.75 4 6.75 2 8 C1.67 7.01 1.34 6.02 1 5 C1.33 4.34 1.66 3.68 2 3 C2.66 3 3.32 3 4 3 C4 2.34 4 1.68 4 1 C2.68 0.67 1.36 0.34 0 0 Z " fill="#E0B2B1" transform="translate(130,0)"/>
<path d="M0 0 C0.66 0 1.32 0 2 0 C2.33 2.31 2.66 4.62 3 7 C4.32 7 5.64 7 7 7 C6.67 7.99 6.34 8.98 6 10 C4.33388095 10.042721 2.66617115 10.04063832 1 10 C0 9 0 9 -0.09765625 6.93359375 C-0.08605469 6.10988281 -0.07445313 5.28617187 -0.0625 4.4375 C-0.05347656 3.61121094 -0.04445313 2.78492188 -0.03515625 1.93359375 C-0.02355469 1.29550781 -0.01195313 0.65742187 0 0 Z " fill="#FEF8F8" transform="translate(120,60)"/>
<path d="M0 0 C0.99 0.33 1.98 0.66 3 1 C3 3.97 3 6.94 3 10 C2.01 10 1.02 10 0 10 C0 6.7 0 3.4 0 0 Z " fill="#FDF0F0" transform="translate(101,60)"/>
<path d="M0 0 C0.33 0 0.66 0 1 0 C1.309375 0.94875 1.61875 1.8975 1.9375 2.875 C2.87394742 5.86080408 2.87394742 5.86080408 4 8 C1.36 8 -1.28 8 -4 8 C-4 7.01 -4 6.02 -4 5 C-3.01 5 -2.02 5 -1 5 C-0.67 3.35 -0.34 1.7 0 0 Z " fill="#FDF5F5" transform="translate(68,62)"/>
<path d="M0 0 C2.475 0.495 2.475 0.495 5 1 C4.67 2.65 4.34 4.3 4 6 C2.68 5.67 1.36 5.34 0 5 C0 3.35 0 1.7 0 0 Z " fill="#DE241B" transform="translate(80,62)"/>
<path d="M0 0 C2.31 0 4.62 0 7 0 C3.53357845 3.17755309 -0.38898294 4.45964644 -5 5 C-6.32 4.67 -7.64 4.34 -9 4 C-6.03 3.34 -3.06 2.68 0 2 C0 1.34 0 0.68 0 0 Z " fill="#171010" transform="translate(123,37)"/>
<path d="M0 0 C0.33 0.66 0.66 1.32 1 2 C3.02463255 2.65213292 3.02463255 2.65213292 5 3 C5 3.66 5 4.32 5 5 C3.35 5 1.7 5 0 5 C0 5.99 0 6.98 0 8 C-0.99 7.67 -1.98 7.34 -3 7 C-2.01 4.69 -1.02 2.38 0 0 Z " fill="#DC1F16" transform="translate(112,18)"/>
<path d="M0 0 C2.0625 0.4375 2.0625 0.4375 4 1 C4 1.66 4 2.32 4 3 C3.01 3 2.02 3 1 3 C0.67 4.98 0.34 6.96 0 9 C-0.99 8.67 -1.98 8.34 -3 8 C-2.67 6.68 -2.34 5.36 -2 4 C-1.34 4 -0.68 4 0 4 C-0.33 3.01 -0.66 2.02 -1 1 C-0.67 0.67 -0.34 0.34 0 0 Z " fill="#E36D69" transform="translate(121,9)"/>
<path d="M0 0 C-0.33 0.99 -0.66 1.98 -1 3 C-2.32 3 -3.64 3 -5 3 C-5 4.65 -5 6.3 -5 8 C-5.33 8 -5.66 8 -6 8 C-6 6.35 -6 4.7 -6 3 C-6.99 2.67 -7.98 2.34 -9 2 C-5.5647952 -0.29013653 -4.014669 -0.17842973 0 0 Z " fill="#F5BDBA" transform="translate(85,59)"/>
<path d="M0 0 C0.8353125 0.37125 0.8353125 0.37125 1.6875 0.75 C0.6975 2.235 0.6975 2.235 -0.3125 3.75 C-3.9375 3.9375 -3.9375 3.9375 -7.3125 3.75 C-2.88173077 -0.31153846 -2.88173077 -0.31153846 0 0 Z " fill="#8A8C8F" transform="translate(108.3125,38.25)"/>
<path d="M0 0 C1.98 0 3.96 0 6 0 C5.67 0.66 5.34 1.32 5 2 C3.68 2 2.36 2 1 2 C1 2.66 1 3.32 1 4 C0.01 4 -0.98 4 -2 4 C-1.34 2.68 -0.68 1.36 0 0 Z " fill="#F9DAD9" transform="translate(111,59)"/>
<path d="M0 0 C-0.763125 0.5775 -1.52625 1.155 -2.3125 1.75 C-4.66200917 3.71703093 -6.29323505 5.48476744 -8 8 C-8.36075949 3.55063291 -8.36075949 3.55063291 -6.8125 1.1875 C-4.44017475 -0.36678206 -2.77958655 -0.22537188 0 0 Z " fill="#F7CFCD" transform="translate(74,59)"/>
<path d="M0 0 C0.53625 0.391875 1.0725 0.78375 1.625 1.1875 C-4.66071429 3.61607143 -4.66071429 3.61607143 -8.375 2.1875 C-2.95961538 -1.0125 -2.95961538 -1.0125 0 0 Z " fill="#757679" transform="translate(100.375,42.8125)"/>
<path d="M0 0 C1.32 0 2.64 0 4 0 C4 1.65 4 3.3 4 5 C2.68 4.67 1.36 4.34 0 4 C0 2.68 0 1.36 0 0 Z " fill="#FEFEFE" transform="translate(7,60)"/>
<path d="M0 0 C2.99693138 0.99897713 4.02709413 1.65130253 6 4 C6 4.66 6 5.32 6 6 C4.68 5.67 3.36 5.34 2 5 C2 4.34 2 3.68 2 3 C1.34 3 0.68 3 0 3 C0 2.01 0 1.02 0 0 Z " fill="#DC1A12" transform="translate(129,5)"/>
</svg>
